<?xml version="1.0" standalone="no"?>
<!DOCTYPE svg PUBLIC "-//W3C//DTD SVG 20010904//EN"
 "http://www.w3.org/TR/2001/REC-SVG-20010904/DTD/svg10.dtd">
<svg version="1.0" xmlns="http://www.w3.org/2000/svg"
 width="600.000000pt" height="600.000000pt" viewBox="0 0 600.000000 600.000000"
 preserveAspectRatio="xMidYMid meet">
<metadata>
Created by potrace 1.14, written by Peter Selinger 2001-2017
</metadata>
<g transform="translate(0.000000,600.000000) scale(0.100000,-0.100000)"
fill="#000000" stroke="none">
<path d="M3292 5580 c-21 -35 -14 -57 24 -75 34 -16 50 -16 121 -1 26 5 25 16
-1 16 -18 0 -40 13 -67 40 -46 45 -59 49 -77 20z"/>
<path d="M3680 5490 c0 -5 5 -10 11 -10 5 0 7 5 4 10 -3 6 -8 10 -11 10 -2 0
-4 -4 -4 -10z"/>
<path d="M3756 5458 c4 -6 3 -8 -3 -5 -18 11 -70 -13 -83 -39 -9 -16 -19 -23
-29 -19 -30 12 -36 10 -34 -10 1 -11 -3 -22 -8 -25 -16 -10 -23 -70 -9 -70 8
0 4 -10 -10 -25 -20 -22 -22 -30 -16 -85 5 -41 4 -60 -4 -60 -6 0 -16 -5 -23
-11 -24 -20 -237 -149 -247 -149 -6 0 -28 11 -48 25 -42 29 -57 30 -103 11
-59 -25 -96 -75 -104 -138 -6 -45 -4 -56 9 -61 9 -4 16 -14 16 -24 0 -45 101
-77 164 -53 38 14 86 86 86 129 0 43 5 51 49 78 28 17 39 19 63 11 23 -8 33
-7 48 7 11 10 20 25 20 34 0 19 18 36 73 70 l37 23 39 -35 c22 -20 58 -46 80
-59 23 -13 41 -26 41 -30 0 -4 -10 -24 -22 -45 -15 -28 -23 -61 -26 -119 -4
-73 -1 -88 22 -139 14 -32 26 -63 26 -70 0 -6 -86 -95 -191 -196 -106 -101
-200 -192 -209 -202 -17 -18 -19 -17 -68 13 -51 31 -141 53 -184 44 -114 -24
-173 -56 -238 -130 l-31 -36 -102 35 c-262 91 -233 76 -251 134 -23 73 -74
112 -150 116 -46 2 -55 5 -51 18 3 9 -4 27 -15 42 -11 14 -20 36 -20 49 0 18
-2 20 -10 8 -11 -17 -2 55 10 80 16 32 0 40 -39 20 -23 -11 -47 -16 -61 -13
-16 4 -21 3 -16 -5 5 -8 -3 -12 -23 -12 -16 0 -32 -4 -36 -9 -3 -5 -29 -17
-58 -27 -28 -9 -56 -23 -62 -30 -5 -7 -24 -15 -41 -17 -17 -3 -40 -9 -50 -14
-45 -22 -92 -15 -152 22 -32 19 -75 38 -95 42 -20 3 -42 12 -48 19 -17 21 -32
17 -70 -19 -84 -80 -91 -106 -75 -264 l8 -81 31 9 c18 5 43 9 58 9 39 0 122
27 144 47 22 20 57 43 110 73 39 22 173 39 184 23 3 -5 18 -16 34 -26 15 -10
27 -23 27 -30 0 -24 67 -67 104 -67 31 0 36 -4 41 -27 16 -75 59 -124 125
-144 54 -16 105 -4 149 37 l39 34 98 -33 c122 -42 174 -64 174 -73 0 -4 -3 -4
-7 -1 -8 8 -73 -63 -73 -79 0 -12 -31 -24 -62 -24 -10 0 -40 14 -66 30 -27 17
-56 30 -64 30 -9 0 -29 7 -44 15 -45 23 -82 20 -90 -9 -3 -14 -3 -29 0 -35 4
-6 0 -24 -9 -41 -9 -17 -13 -36 -9 -42 4 -6 3 -8 -4 -5 -13 9 -3 -68 14 -101
17 -33 58 -52 111 -52 64 0 133 42 133 81 0 22 34 42 74 43 37 1 56 -26 56
-81 0 -24 5 -43 10 -43 6 0 10 5 10 10 0 10 17 19 67 34 19 6 25 1 38 -31 20
-48 41 -71 88 -95 32 -16 55 -19 144 -16 l105 3 25 -80 c14 -44 42 -134 63
-200 l39 -120 -22 -15 c-82 -58 -134 -139 -141 -220 -6 -73 19 -183 50 -219
13 -16 24 -32 24 -35 0 -4 -59 -85 -131 -180 l-131 -174 -34 20 c-25 15 -44
18 -69 14 -37 -7 -105 -64 -105 -88 0 -11 -14 -13 -67 -10 -91 6 -191 -15
-259 -53 l-56 -32 -26 24 c-35 32 -64 38 -114 22 -58 -19 -92 -68 -85 -126 5
-51 7 -51 -99 -20 -43 13 -122 34 -174 47 -52 12 -99 26 -103 30 -5 4 -10 36
-12 71 -3 63 -37 159 -56 159 -5 0 -9 6 -9 13 0 15 -65 80 -97 96 -34 17 -147
38 -184 34 -153 -17 -262 -119 -284 -265 -9 -59 11 -163 40 -214 67 -115 212
-175 346 -144 89 20 153 65 209 147 l15 22 165 -43 c91 -24 199 -54 241 -66
l76 -22 6 -102 c7 -132 34 -202 108 -281 l28 -30 -24 -50 c-67 -136 -3 -309
143 -388 26 -13 64 -28 85 -31 28 -5 36 -10 29 -19 -5 -7 -6 -21 -1 -32 4 -11
8 -34 8 -52 1 -18 6 -43 12 -57 10 -20 9 -28 -5 -41 -9 -9 -16 -22 -16 -29 0
-7 -9 -32 -21 -55 -11 -24 -21 -57 -21 -75 -1 -46 14 -156 21 -156 4 0 5 -29
4 -65 -3 -64 -2 -65 27 -72 17 -5 30 -12 29 -18 -1 -5 -5 -9 -11 -7 -5 1 -7
-2 -3 -8 4 -7 12 -7 25 0 23 12 89 -26 90 -52 0 -10 4 -18 10 -18 5 0 14 8 19
18 9 15 12 15 34 -10 13 -16 44 -37 69 -48 28 -12 59 -38 82 -66 20 -26 36
-43 36 -39 0 5 8 0 19 -11 56 -57 61 -59 166 -58 55 0 124 6 153 13 50 12 57
18 100 80 26 36 62 80 80 98 35 34 41 53 17 53 -33 0 -85 42 -109 89 -9 17
-24 35 -31 38 -8 3 -12 9 -9 14 3 5 -5 9 -18 9 l-23 1 25 14 c25 14 25 15 -10
9 l-35 -5 39 20 c21 11 44 25 52 32 14 12 22 8 64 -31 9 -8 45 -40 80 -70 98
-84 167 -153 143 -141 -12 6 -25 16 -28 21 -3 5 -15 15 -25 20 -15 8 -18 7
-14 -3 6 -17 79 -59 87 -51 11 11 66 -48 59 -65 -5 -14 -4 -14 12 -2 15 13 18
12 23 -7 7 -29 44 -33 99 -11 16 7 34 13 39 14 6 1 27 9 47 18 21 9 42 17 47
17 6 0 35 11 65 25 30 14 60 25 65 25 22 0 10 18 -19 30 -45 19 -159 7 -225
-24 -30 -14 -55 -21 -55 -17 0 5 24 19 53 32 44 21 69 24 167 25 118 1 130 4
210 56 14 9 58 34 98 56 41 21 81 45 90 53 10 8 37 21 62 28 61 20 103 41 113
57 4 8 17 14 27 14 11 0 20 4 20 8 0 4 13 15 29 25 17 10 40 26 53 36 57 48
185 158 204 176 12 11 49 45 82 75 57 51 62 58 63 100 l1 45 10 -35 c9 -33 11
-34 24 -15 8 10 14 29 14 42 0 13 5 23 10 23 6 0 10 -5 10 -11 0 -6 7 -4 15 5
8 8 15 20 15 26 0 7 13 40 29 74 21 43 38 65 58 73 39 17 93 63 104 88 9 21
31 57 39 65 8 8 42 81 56 118 7 18 12 57 12 85 1 28 6 53 11 55 6 2 11 31 11
65 l0 62 25 -52 c18 -37 30 -51 40 -47 8 4 15 11 15 18 0 6 8 27 18 46 10 19
25 55 32 80 8 25 20 50 26 55 14 12 54 170 54 215 0 18 6 46 14 63 55 124 90
298 80 405 -4 46 -3 72 4 72 18 0 22 31 7 46 -10 11 -31 15 -65 13 -39 -2 -53
1 -63 15 -30 42 9 161 56 170 32 7 57 4 57 -6 0 -5 9 -4 21 2 19 11 20 18 15
108 -5 110 -11 164 -27 238 -10 43 -15 51 -30 47 -14 -4 -19 0 -19 15 0 12 5
24 10 27 17 11 11 47 -22 133 l-32 83 -15 -26 c-9 -15 -37 -38 -63 -52 -27
-14 -48 -30 -48 -35 0 -5 -7 -16 -15 -25 -19 -19 -11 -77 16 -112 20 -26 27
-124 10 -150 -5 -8 -6 -24 -1 -36 5 -13 5 -26 0 -31 -5 -5 -15 -20 -22 -34 -7
-14 -31 -51 -53 -83 l-40 -57 -40 7 c-22 5 -70 8 -106 7 -72 -1 -103 -15 -188
-83 -36 -29 -42 -32 -32 -13 6 12 17 22 23 22 6 0 9 3 6 6 -4 3 -16 0 -28 -6
-15 -8 -20 -8 -16 -1 4 6 3 11 -3 11 -15 0 -40 58 -36 83 2 12 6 63 9 112 4
69 2 95 -10 113 -13 20 -13 23 1 28 9 4 15 18 15 35 0 19 5 29 15 29 11 0 15
11 15 40 0 33 3 40 20 40 17 0 20 -7 20 -41 l0 -41 49 41 c27 23 54 41 60 41
6 0 21 10 33 22 19 19 22 20 27 5 5 -14 18 -7 70 39 49 43 69 54 87 50 19 -5
27 2 50 42 20 36 28 64 31 120 2 40 13 98 25 129 24 65 16 111 -28 158 -14 16
-27 40 -29 53 -1 14 -10 31 -18 37 -14 10 -14 19 3 89 l20 78 -23 46 c-34 68
-60 114 -74 130 -7 7 -13 18 -13 24 0 5 -16 25 -35 44 -20 19 -38 48 -42 64
-3 17 -17 40 -32 53 -14 12 -37 36 -51 52 -36 42 -60 41 -109 -5 -23 -22 -47
-37 -54 -35 -6 3 -27 23 -46 45 -25 30 -41 40 -63 40 -48 0 -148 66 -148 97 0
7 -6 10 -14 7 -14 -5 -96 62 -96 79 0 4 28 7 62 7 72 0 198 42 218 74 10 16 9
22 -6 33 -11 8 -19 18 -19 24 0 8 -71 79 -79 79 -10 0 -71 64 -68 72 1 5 -1 7
-6 4 -5 -3 -18 5 -30 17 -30 32 -50 47 -61 47 -6 0 -18 11 -26 24 -11 16 -30
27 -56 31 -22 4 -46 13 -53 20 -12 12 -16 11 -30 -4 -9 -10 -16 -23 -16 -30 0
-35 -93 -30 -330 17 l-95 19 -6 49 c-4 37 -1 56 13 79 24 40 24 87 1 83 -10
-2 -20 -5 -23 -9 -10 -11 -106 -56 -134 -63 -22 -5 -27 -11 -23 -28 4 -14 0
-22 -13 -25 -10 -3 -20 -13 -23 -24 -3 -11 -14 -19 -25 -19 -25 0 -92 75 -99
113 -5 24 -10 28 -29 24 -13 -2 -21 0 -18 4 2 4 -4 13 -15 18 -26 14 -34 14
-25 -1z m674 -309 c133 -16 128 -13 136 -64 3 -25 10 -45 14 -45 4 0 12 -18
19 -40 8 -26 32 -61 67 -96 46 -46 55 -60 50 -80 -7 -28 -18 -30 -36 -9 -7 8
-19 15 -26 15 -8 0 -14 7 -14 15 0 8 -4 15 -8 15 -4 0 -16 15 -27 33 -24 42
-28 44 -87 46 -40 0 -61 9 -116 44 -37 24 -98 63 -135 87 -66 42 -93 71 -83
89 6 10 119 5 246 -10z m-51 -223 c7 -8 20 -12 31 -9 12 3 23 -3 32 -16 7 -12
18 -21 25 -21 7 0 13 -4 13 -10 0 -5 6 -10 13 -10 7 0 28 -14 47 -31 27 -25
40 -30 65 -26 l32 5 -28 -31 c-16 -17 -29 -37 -29 -43 0 -7 -5 -14 -11 -16 -7
-2 -12 -24 -13 -48 -2 -72 29 -106 120 -132 63 -19 74 -25 74 -44 0 -12 6 -25
13 -28 6 -3 1 -3 -13 0 -25 6 -58 21 -215 94 -44 20 -104 48 -133 61 -38 17
-51 28 -46 39 27 69 27 198 -1 263 -9 20 8 23 24 3z m-21 -371 c15 -8 77 -37
137 -66 160 -74 195 -92 195 -99 0 -4 -18 -19 -40 -34 -25 -16 -49 -44 -62
-71 -18 -36 -30 -48 -72 -65 -28 -11 -66 -33 -84 -49 -32 -27 -33 -30 -26 -79
5 -40 15 -62 43 -94 20 -22 39 -54 43 -71 6 -31 -8 -87 -22 -87 -13 0 -50 -69
-50 -94 0 -12 11 -33 25 -46 36 -34 35 -95 -4 -143 -22 -28 -30 -51 -35 -102
-8 -81 -19 -110 -54 -145 -15 -15 -31 -33 -37 -39 -5 -5 -19 -19 -30 -30 -36
-35 -47 -52 -40 -59 4 -4 10 -1 12 6 3 6 8 12 13 12 5 0 28 18 51 40 24 22 51
40 61 40 10 0 18 3 18 8 0 4 12 12 26 19 21 10 32 10 53 -2 29 -14 136 -23
148 -12 3 4 17 7 29 7 13 0 27 8 32 17 11 19 88 20 125 1 12 -6 29 -14 37 -18
8 -4 15 -13 15 -20 0 -16 -55 -49 -72 -43 -6 3 -31 -16 -55 -41 -34 -35 -49
-60 -62 -108 -10 -35 -21 -74 -24 -88 -5 -17 -19 -29 -41 -36 -18 -6 -36 -16
-40 -23 -5 -7 -10 -12 -12 -10 -2 1 -23 -10 -46 -24 -24 -15 -49 -27 -57 -27
-8 0 -18 -4 -21 -10 -7 -12 -62 -13 -69 -2 -3 5 -35 14 -71 22 -71 15 -81 22
-70 48 9 20 7 79 -5 139 -5 28 -3 50 5 66 12 24 12 24 -44 21 -129 -6 -168
-11 -196 -27 -16 -9 -44 -23 -61 -31 -17 -9 -34 -22 -38 -31 -7 -19 14 -115
26 -115 4 0 8 -12 8 -26 0 -28 64 -98 100 -109 25 -8 33 -34 15 -51 -8 -9 -15
-30 -15 -48 0 -17 -5 -37 -11 -43 -8 -8 -8 -17 0 -31 6 -11 11 -38 11 -59 0
-25 3 -33 9 -25 6 10 11 7 19 -15 14 -35 32 -57 55 -66 26 -10 24 -67 -3 -67
-11 0 -20 -4 -20 -10 0 -5 9 -10 20 -10 11 0 20 5 20 10 0 6 9 10 19 10 11 0
22 8 25 18 3 9 3 -6 0 -34 -4 -32 -1 -54 5 -59 6 -3 11 -29 11 -57 0 -28 -2
-49 -5 -46 -8 8 -55 -41 -88 -91 -26 -40 -28 -48 -24 -114 3 -40 8 -88 12
-108 6 -33 3 -40 -24 -67 -17 -16 -31 -33 -31 -39 0 -20 -73 -73 -123 -87 -28
-9 -57 -19 -62 -23 -16 -12 -35 -61 -35 -88 0 -28 20 -75 32 -75 4 0 8 -6 8
-12 0 -7 18 -20 39 -29 34 -15 43 -15 66 -3 15 8 33 14 40 14 26 0 47 40 56
109 10 69 13 74 68 132 62 66 58 64 172 53 60 -6 69 -4 88 15 12 12 26 19 31
16 4 -3 21 10 37 29 37 46 63 54 158 49 113 -5 139 -16 174 -71 16 -26 43 -62
60 -81 36 -39 40 -75 11 -91 -11 -6 -27 -25 -36 -42 -9 -17 -25 -41 -36 -52
-11 -12 -33 -42 -50 -68 -17 -27 -35 -48 -38 -48 -4 0 -13 -14 -20 -30 -7 -17
-28 -43 -46 -60 -19 -16 -34 -33 -34 -38 0 -5 -16 -26 -35 -48 -19 -21 -52
-64 -72 -94 -21 -30 -50 -68 -65 -83 -16 -16 -28 -32 -28 -36 0 -4 -8 -16 -17
-27 -10 -10 -31 -39 -48 -63 -16 -24 -35 -45 -42 -48 -7 -3 -13 -10 -13 -17 0
-6 -8 -19 -17 -28 -10 -9 -29 -30 -43 -47 -14 -17 -44 -49 -67 -72 -24 -23
-43 -49 -43 -56 0 -8 -4 -12 -8 -9 -5 3 -15 -5 -22 -18 -7 -13 -29 -32 -49
-43 -20 -10 -38 -21 -41 -24 -3 -3 -23 -9 -44 -12 -59 -9 -141 -70 -160 -118
-9 -22 -14 -44 -12 -48 3 -4 1 -13 -4 -21 -9 -14 -56 21 -165 122 -22 20 -56
49 -76 65 l-36 28 24 52 c25 53 46 190 31 199 -4 3 -8 13 -8 22 0 38 -23 94
-56 137 -19 25 -32 51 -28 57 4 7 3 8 -5 4 -6 -4 -25 4 -42 18 -46 39 -149 67
-225 62 -35 -3 -78 -8 -96 -11 -33 -6 -33 -5 -72 72 -21 43 -52 105 -68 137
-23 47 -27 61 -16 68 10 8 9 9 -4 5 -9 -3 -19 1 -22 9 -6 15 49 61 66 56 5 -1
7 1 5 5 -3 5 8 24 24 43 16 19 29 29 29 22 0 -7 4 -11 9 -8 5 3 11 -1 15 -9 3
-8 1 -15 -5 -15 -6 0 -7 -5 -3 -11 4 -7 9 -7 13 -2 3 6 32 13 64 16 32 3 69
13 82 21 24 16 55 12 55 -5 0 -5 8 -9 17 -9 22 0 83 -59 83 -80 0 -10 8 -26
18 -36 42 -46 63 -57 112 -60 43 -2 50 0 50 17 0 10 5 19 11 19 7 0 20 10 30
22 35 39 18 155 -27 184 -15 11 -51 18 -94 20 -70 2 -80 7 -131 58 -22 21 -29
38 -29 66 0 46 -15 89 -36 104 -20 15 -8 45 22 56 36 14 57 54 50 95 -4 19
-12 35 -17 35 -14 0 -39 26 -39 39 0 6 -4 11 -9 11 -11 0 -27 51 -30 96 -1 30
-51 50 -80 32 -25 -15 -27 -40 -5 -74 28 -41 4 -227 -27 -209 -5 4 -9 -1 -9
-9 0 -19 -16 -21 -23 -3 -3 6 -6 3 -7 -8 0 -11 -11 5 -25 38 -13 32 -40 81
-60 108 -40 55 -42 64 -18 55 10 -4 14 -4 10 0 -3 4 3 19 14 35 11 16 18 41
17 57 -1 17 3 36 8 44 14 17 179 237 224 299 34 45 36 47 60 33 78 -43 207
-48 285 -9 72 35 117 76 150 136 27 49 30 63 30 144 0 105 -20 157 -90 230
-23 25 -40 46 -39 48 6 5 -21 82 -36 103 -8 11 -34 33 -57 47 -56 36 -67 58
-60 130 5 51 1 67 -24 120 -24 51 -30 58 -35 41 -4 -17 -16 -23 -52 -28 -26
-3 -56 -15 -68 -27 l-23 -21 -15 33 c-14 33 -13 35 12 54 14 11 45 37 68 58
l42 38 28 -30 c21 -23 30 -27 38 -17 6 6 32 29 58 49 55 44 67 83 48 152 -14
50 -37 65 -102 66 -12 0 -18 8 -18 24 0 13 -11 45 -25 71 -14 26 -25 53 -25
59 0 11 186 194 368 362 56 52 75 62 86 44 3 -5 25 -19 48 -32 37 -20 57 -24
143 -24 91 0 104 2 152 29 28 15 66 43 84 62 37 38 49 41 87 19z m592 -65 c9
-17 8 -20 -13 -18 -14 1 -23 8 -23 20 0 24 23 23 36 -2z m30 0 c0 -5 -4 -10
-10 -10 -5 0 -10 5 -10 10 0 6 5 10 10 10 6 0 10 -4 10 -10z m36 -22 c4 -7 3
-8 -5 -4 -6 4 -18 2 -26 -4 -9 -8 -15 -8 -15 -2 0 9 15 19 32 21 4 1 10 -4 14
-11z m-136 -397 c0 -24 49 -105 75 -123 6 -5 3 -8 -7 -8 -9 0 -24 10 -33 23
l-17 22 7 -25 c4 -14 12 -26 16 -28 5 -2 16 -19 25 -38 16 -34 16 -37 -7 -86
-36 -78 -27 -168 24 -223 12 -13 16 -27 11 -40 -3 -11 -9 -39 -11 -62 l-5 -43
-49 0 c-29 0 -60 7 -75 16 -13 9 -27 14 -31 10 -11 -11 -33 16 -33 40 0 35
-32 95 -47 90 -7 -3 -12 -2 -11 2 1 4 -2 15 -7 25 -4 9 -4 30 0 45 18 73 17
94 -5 138 -13 24 -29 49 -37 55 -21 18 -15 29 15 29 45 1 114 38 159 87 41 44
42 48 33 82 -12 45 -12 54 0 46 6 -3 10 -19 10 -34z m353 -628 c-7 -2 -19 -2
-25 0 -7 3 -2 5 12 5 14 0 19 -2 13 -5z m-478 -611 c9 9 47 -10 41 -20 -5 -9
66 -7 124 3 71 13 114 -1 124 -41 4 -15 11 -21 21 -18 11 4 15 -1 15 -17 0
-20 2 -21 11 -9 8 11 9 7 5 -19 -3 -18 -6 -40 -6 -48 0 -9 -6 -13 -15 -10 -8
4 -17 3 -19 -2 -3 -4 -78 -14 -167 -21 -132 -11 -164 -11 -167 -1 -2 7 -18 28
-34 46 -44 51 -118 58 -213 20 -11 -5 12 17 50 48 39 31 80 57 93 57 12 0 22
4 22 9 0 5 19 18 42 29 39 18 44 18 54 3 7 -9 16 -13 19 -9z m358 -301 c18
-31 24 -56 7 -31 -8 11 -9 7 -4 -15 8 -36 14 -45 14 -20 0 16 2 15 20 -5 11
-13 20 -28 20 -34 0 -6 -4 -4 -10 4 -5 8 -12 12 -15 8 -4 -3 -1 -15 6 -26 11
-17 8 -26 -18 -66 -17 -25 -43 -71 -59 -102 -33 -64 -47 -73 -155 -89 -78 -12
-133 -41 -144 -75 -9 -29 -52 -41 -119 -35 -109 10 -131 22 -177 89 -37 54
-95 106 -119 106 -12 0 -16 52 -10 142 4 61 9 81 28 100 12 14 22 33 22 44 0
12 8 4 19 -21 38 -82 94 -112 185 -101 58 8 104 42 126 95 10 25 19 31 44 32
17 0 81 7 141 13 176 21 178 20 198 -13z m244 -188 c27 -3 43 -11 43 -19 0 -8
-5 -14 -10 -14 -6 0 -13 -6 -16 -14 -6 -16 -45 -62 -116 -137 -27 -27 -48 -54
-48 -60 0 -5 -4 -8 -8 -5 -5 3 -15 -4 -22 -15 -24 -32 -33 -22 -28 33 4 34 12
57 24 68 11 9 20 22 22 30 2 8 7 17 10 20 11 8 47 83 45 92 -2 4 9 8 23 8 24
0 25 2 13 17 -12 15 -12 16 6 9 10 -4 38 -10 62 -13z m283 -287 c0 -3 -4 -8
-10 -11 -5 -3 -10 -1 -10 4 0 6 5 11 10 11 6 0 10 -2 10 -4z m-93 -158 c-3 -7
-5 -2 -5 12 0 14 2 19 5 13 2 -7 2 -19 0 -25z m-2627 -706 c0 -12 -23 15 -31
36 l-10 26 -14 -24 c-8 -14 -19 -35 -24 -48 -6 -12 -17 -25 -25 -28 -27 -10
-5 -35 28 -33 38 2 68 -9 60 -23 -4 -6 -9 -6 -14 2 -5 7 -7 2 -7 -14 0 -26 0
-26 19 -9 28 24 38 54 26 76 -5 10 -7 21 -5 23 3 3 12 -8 20 -25 14 -28 13
-31 -10 -53 -35 -33 -73 -115 -73 -159 0 -21 -5 -41 -12 -45 -8 -5 -9 2 -5 24
4 17 2 34 -3 37 -6 3 -10 -3 -10 -14 0 -13 -5 -19 -14 -15 -19 7 -9 84 12 102
14 11 14 12 0 12 -18 0 -23 -12 -33 -77 -4 -27 -12 -43 -21 -43 -8 0 -14 6
-14 13 0 7 -9 30 -20 52 -24 47 -25 55 -6 55 8 0 18 4 21 10 4 6 -2 7 -18 1
-19 -7 -27 -5 -40 9 -16 19 -6 40 21 40 7 0 19 6 26 13 7 6 27 23 44 36 33 25
82 102 82 129 0 8 11 -7 25 -34 14 -27 25 -50 25 -52z m-60 -47 c0 -8 -7 -15
-16 -15 -14 0 -14 3 -4 15 7 8 14 15 16 15 2 0 4 -7 4 -15z"/>
<path d="M3912 4400 c-52 -37 -64 -61 -64 -120 0 -73 8 -87 59 -104 79 -27
113 -18 185 46 25 22 26 27 17 73 -15 86 -43 115 -120 129 -30 5 -43 1 -77
-24z"/>
<path d="M3796 3603 c-11 -11 -6 -23 8 -23 8 0 17 4 20 9 7 10 -19 23 -28 14z"/>
<path d="M3000 1539 c0 -5 5 -7 10 -4 6 3 10 8 10 11 0 2 -4 4 -10 4 -5 0 -10
-5 -10 -11z"/>
<path d="M3591 1534 c0 -11 3 -14 6 -6 3 7 2 16 -1 19 -3 4 -6 -2 -5 -13z"/>
<path d="M3280 1530 c0 -5 5 -10 10 -10 6 0 10 5 10 10 0 6 -4 10 -10 10 -5 0
-10 -4 -10 -10z"/>
<path d="M2920 1500 c-9 -6 -10 -10 -3 -10 6 0 15 5 18 10 8 12 4 12 -15 0z"/>
<path d="M2930 1421 c0 -5 5 -13 10 -16 6 -3 10 -2 10 4 0 5 -4 13 -10 16 -5
3 -10 2 -10 -4z"/>
<path d="M2951 1374 c0 -11 3 -14 6 -6 3 7 2 16 -1 19 -3 4 -6 -2 -5 -13z"/>
<path d="M2981 1333 c7 -10 15 -20 16 -22 2 -2 3 3 3 11 0 9 -7 19 -16 22 -15
6 -15 4 -3 -11z"/>
<path d="M3021 1254 c0 -11 3 -14 6 -6 3 7 2 16 -1 19 -3 4 -6 -2 -5 -13z"/>
<path d="M4680 2711 c0 -5 5 -13 10 -16 6 -3 10 -2 10 4 0 5 -4 13 -10 16 -5
3 -10 2 -10 -4z"/>
<path d="M4401 2484 c0 -11 11 -31 27 -45 l27 -24 -22 25 c-11 14 -23 34 -26
45 -5 19 -5 19 -6 -1z"/>
<path d="M5318 2323 c7 -3 16 -2 19 1 4 3 -2 6 -13 5 -11 0 -14 -3 -6 -6z"/>
<path d="M2775 1120 c3 -5 8 -10 11 -10 2 0 4 5 4 10 0 6 -5 10 -11 10 -5 0
-7 -4 -4 -10z"/>
<path d="M2776 1073 c-4 -9 -3 -20 2 -25 6 -6 11 1 14 16 6 29 -6 35 -16 9z"/>
<path d="M2831 984 c0 -11 3 -14 6 -6 3 7 2 16 -1 19 -3 4 -6 -2 -5 -13z"/>
<path d="M3522 5440 c0 -14 2 -19 5 -12 2 6 2 18 0 25 -3 6 -5 1 -5 -13z"/>
<path d="M3640 5450 c0 -5 5 -10 10 -10 6 0 10 5 10 10 0 6 -4 10 -10 10 -5 0
-10 -4 -10 -10z"/>
<path d="M3552 5420 c-20 -32 -14 -45 8 -17 11 14 20 28 20 31 0 13 -16 5 -28
-14z"/>
<path d="M1988 5401 c-31 -30 -47 -41 -57 -41 -21 0 -30 -83 -10 -96 18 -11
96 -6 119 8 18 11 20 21 18 73 -3 52 -6 60 -23 60 -11 0 -22 2 -25 6 -3 3 -13
-2 -22 -10z"/>
<path d="M4299 5381 c-27 -33 -21 -65 12 -69 33 -4 62 28 57 64 -4 37 -42 40
-69 5z"/>
<path d="M3917 5359 c7 -7 15 -10 18 -7 3 3 -2 9 -12 12 -14 6 -15 5 -6 -5z"/>
<path d="M3420 5221 c-14 -10 -43 -29 -65 -41 -161 -90 -173 -94 -243 -60 -48
23 -52 24 -104 8 -29 -9 -43 -20 -55 -47 -9 -20 -20 -38 -23 -41 -10 -8 -29
-83 -24 -92 3 -4 -3 -9 -13 -9 -10 -1 11 -5 47 -9 55 -7 67 -6 77 8 33 43 58
63 96 74 23 6 50 18 60 26 30 26 52 38 200 105 48 23 87 44 87 49 0 4 5 8 11
8 6 0 17 7 26 15 8 8 19 12 25 9 7 -4 8 -2 4 4 -11 18 -78 13 -106 -7z"/>
<path d="M1375 5091 c-66 -41 -79 -84 -47 -151 11 -23 34 -44 67 -62 56 -31
75 -34 75 -14 0 8 16 27 35 43 33 26 35 32 38 92 l2 65 -40 23 c-49 28 -90 29
-130 4z"/>
<path d="M2428 5023 c-37 -6 -42 -28 -6 -29 35 -1 47 -12 28 -24 -11 -7 -6
-10 18 -10 41 0 52 24 24 51 -12 10 -25 18 -29 18 -4 -1 -20 -4 -35 -6z"/>
<path d="M3707 4635 c3 -8 9 -12 14 -9 12 7 11 11 -5 17 -10 4 -13 1 -9 -8z"/>
<path d="M3244 4613 c-3 -10 -10 -26 -15 -35 -24 -47 4 -151 45 -162 79 -21
139 16 161 99 13 49 13 50 -13 73 -38 32 -66 42 -123 42 -39 0 -51 -4 -55 -17z"/>
<path d="M1380 4115 c-14 -8 -19 -14 -12 -15 17 0 15 -20 -3 -20 -8 0 -15 -7
-15 -15 0 -9 -11 -20 -25 -25 -14 -5 -25 -17 -25 -25 0 -9 -6 -15 -12 -14 -22
4 -132 -24 -149 -38 -8 -7 -20 -13 -25 -13 -5 0 -29 -20 -53 -45 -38 -38 -43
-47 -36 -72 5 -15 9 -55 9 -88 1 -62 -16 -95 -80 -162 -25 -25 -96 -63 -119
-63 -8 0 -15 -4 -15 -10 0 -16 37 -30 80 -30 42 0 100 -23 100 -40 0 -21 85
-64 122 -62 21 0 40 -3 43 -9 19 -30 112 10 117 51 2 20 12 27 53 40 79 24
105 46 102 85 -1 18 -5 31 -10 28 -4 -2 -11 7 -16 20 -6 14 -18 31 -29 38 -30
22 -42 50 -27 66 8 7 16 13 20 13 3 0 15 8 26 18 10 11 32 25 47 33 15 7 29
14 31 16 2 1 7 21 11 45 9 46 -11 98 -37 98 -7 0 -13 5 -13 10 0 6 -20 10 -44
10 -25 0 -46 5 -48 12 -6 16 14 88 24 88 4 0 8 6 8 13 0 6 7 25 15 41 19 36
17 38 -15 21z"/>
<path d="M512 4060 c-28 -27 -42 -61 -42 -105 0 -36 41 -80 85 -91 35 -9 91
13 120 47 29 35 30 44 11 90 -21 50 -49 71 -103 76 -39 4 -52 1 -71 -17z"/>
<path d="M5672 3920 c1 -13 9 -25 16 -28 17 -5 15 16 -4 35 -14 15 -16 14 -12
-7z"/>
<path d="M217 3773 c-3 -5 -8 -23 -12 -40 -5 -28 -4 -33 12 -33 26 0 47 48 28
66 -15 16 -22 17 -28 7z"/>
<path d="M358 3766 c-26 -20 -22 -30 22 -60 45 -30 54 -24 48 36 -2 27 -8 33
-28 35 -14 2 -33 -3 -42 -11z"/>
<path d="M403 3602 c-61 -67 -53 -148 22 -225 35 -36 39 -37 96 -34 71 4 118
35 119 79 0 16 9 34 23 43 15 12 18 19 10 22 -7 3 -13 12 -13 20 0 21 -68 86
-110 105 -19 8 -53 18 -75 21 -36 4 -43 1 -72 -31z"/>
<path d="M2545 3430 c-11 -5 -33 -9 -49 -9 -43 -1 -112 -40 -126 -70 -52 -113
-48 -137 28 -186 38 -24 58 -30 102 -29 72 0 106 10 114 31 4 10 10 46 13 80
4 48 2 68 -10 87 -9 13 -19 43 -23 65 -7 42 -14 46 -49 31z"/>
<path d="M1306 3205 c-11 -8 -20 -31 -23 -58 -5 -39 -2 -46 22 -65 32 -26 58
-28 75 -7 7 8 19 15 26 15 8 0 14 4 14 10 0 33 -61 120 -84 120 -6 0 -19 -7
-30 -15z"/>
<path d="M1961 3151 c-44 -44 -9 -107 56 -99 38 4 76 70 53 92 -8 8 -31 18
-52 21 -29 6 -40 3 -57 -14z"/>
<path d="M400 3032 c0 -5 -31 -23 -69 -41 -89 -42 -121 -84 -121 -160 0 -80
35 -138 103 -173 28 -14 42 -16 52 -8 9 8 26 7 60 -2 57 -15 69 -37 47 -88
-20 -47 -33 -97 -36 -140 -3 -39 20 -138 37 -158 5 -7 11 -25 12 -40 2 -15 6
-47 10 -71 5 -27 4 -42 -1 -38 -6 3 -11 -3 -11 -14 -2 -24 17 -25 24 0 8 32
71 59 138 58 68 0 131 17 139 38 3 8 12 15 19 15 23 0 124 103 131 133 4 15
11 25 16 22 6 -3 10 3 10 15 0 12 -4 19 -9 16 -5 -4 -13 8 -16 26 -4 18 -15
38 -24 45 -11 9 -12 12 -3 13 9 0 7 9 -7 29 -12 16 -21 34 -21 40 0 6 -7 8
-15 5 -8 -4 -15 -3 -15 1 0 19 34 105 41 105 5 0 9 5 9 11 0 6 7 26 16 45 34
71 -7 186 -80 222 -78 40 -204 25 -249 -28 -36 -42 -58 -42 -70 0 -9 36 -23
53 -69 83 -16 10 -28 24 -28 32 0 8 -4 15 -10 15 -5 0 -10 -4 -10 -8z"/>
<path d="M2847 2990 c-51 -9 -55 -16 -63 -83 -8 -70 9 -108 68 -151 37 -27 42
-28 82 -16 52 14 94 51 101 88 4 15 9 43 14 62 8 42 4 70 -12 70 -7 0 -29 9
-50 20 -38 21 -74 23 -140 10z"/>
<path d="M1065 2310 c4 -6 11 -8 16 -5 14 9 11 15 -7 15 -8 0 -12 -5 -9 -10z"/>
<path d="M334 1866 c-6 -16 40 -109 50 -99 11 11 7 49 -10 81 -17 34 -31 41
-40 18z"/>
<path d="M1374 1739 c-30 -29 -54 -59 -54 -68 0 -9 -7 -26 -15 -39 -12 -16
-13 -26 -5 -41 15 -30 119 -111 141 -111 74 0 167 98 155 163 -9 50 -51 99
-104 124 -26 12 -51 22 -55 23 -5 0 -33 -23 -63 -51z"/>
<path d="M2022 1682 c-23 -10 -55 -30 -70 -45 -69 -69 1 -217 104 -217 31 0
98 37 122 68 6 9 12 38 12 65 0 46 -4 53 -49 98 -26 27 -54 49 -62 48 -8 0
-33 -8 -57 -17z"/>
<path d="M1098 1569 c-39 -22 -2 -107 39 -92 31 11 53 35 53 59 0 37 -53 56
-92 33z"/>
<path d="M1370 1343 c-46 -59 12 -123 68 -74 27 23 28 41 1 75 -26 33 -42 33
-69 -1z"/>
<path d="M1977 1232 c-22 -24 -21 -45 2 -66 41 -37 88 12 57 59 -20 30 -37 32
-59 7z"/>
<path d="M3444 500 c0 -10 6 -16 13 -13 7 3 13 9 13 13 0 4 -6 10 -13 13 -7 3
-13 -3 -13 -13z"/>
<path d="M3535 420 c3 -5 8 -10 11 -10 2 0 4 5 4 10 0 6 -5 10 -11 10 -5 0 -7
-4 -4 -10z"/>
</g>
</svg>
